<svg xmlns="http://www.w3.org/2000/svg" xmlns:xlink="http://www.w3.org/1999/xlink" width="500" zoomAndPan="magnify" viewBox="0 0 375 374.999991" height="500" preserveAspectRatio="xMidYMid meet" version="1.0"><defs><g/><clipPath id="56325b9b96"><path d="M 209.394531 65.828125 L 239.417969 65.828125 L 239.417969 149.449219 L 209.394531 149.449219 Z M 209.394531 65.828125 " clip-rule="nonzero"/></clipPath><clipPath id="ab057a2afb"><path d="M 209.394531 78.367188 L 209.394531 149.449219 L 239.417969 136.9375 L 239.417969 65.855469 Z M 209.394531 78.367188 " clip-rule="nonzero"/></clipPath><clipPath id="bc4a215d1a"><path d="M 240.164062 65.109375 L 286.023438 65.109375 L 286.023438 212.363281 L 240.164062 212.363281 Z M 240.164062 65.109375 " clip-rule="nonzero"/></clipPath><clipPath id="0fbbb6fdfd"><path d="M 286.023438 80.070312 L 286.023438 212.292969 L 240.164062 197.332031 L 240.164062 65.109375 Z M 286.023438 80.070312 " clip-rule="nonzero"/></clipPath><clipPath id="bdabe0dfa6"><path d="M 151.917969 102.03125 L 185.058594 102.03125 L 185.058594 167.921875 L 151.917969 167.921875 Z M 151.917969 102.03125 " clip-rule="nonzero"/></clipPath><clipPath id="9677c3923f"><path d="M 151.917969 114.621094 L 151.917969 167.921875 L 185.058594 155.414062 L 185.058594 102.113281 Z M 151.917969 114.621094 " clip-rule="nonzero"/></clipPath><clipPath id="f1616f85a4"><path d="M 185.703125 101.425781 L 217.90625 101.425781 L 217.90625 197.53125 L 185.703125 197.53125 Z M 185.703125 101.425781 " clip-rule="nonzero"/></clipPath><clipPath id="d27bffc9f3"><path d="M 217.90625 112.160156 L 217.90625 197.480469 L 185.703125 186.746094 L 185.703125 101.425781 Z M 217.90625 112.160156 " clip-rule="nonzero"/></clipPath><clipPath id="c9bbfc4b89"><path d="M 100.953125 68.089844 L 134.09375 68.089844 L 134.09375 185.113281 L 100.953125 185.113281 Z M 100.953125 68.089844 " clip-rule="nonzero"/></clipPath><clipPath id="e30037bb92"><path d="M 100.953125 80.609375 L 100.953125 185.113281 L 134.09375 172.605469 L 134.09375 68.101562 Z M 100.953125 80.609375 " clip-rule="nonzero"/></clipPath><clipPath id="08334e384d"><path d="M 134.832031 68.917969 L 168.988281 68.917969 L 168.988281 212.351562 L 134.832031 212.351562 Z M 134.832031 68.917969 " clip-rule="nonzero"/></clipPath><clipPath id="fa8210803b"><path d="M 168.988281 83.878906 L 168.988281 212.289062 L 134.832031 197.328125 L 134.832031 68.917969 Z M 168.988281 83.878906 " clip-rule="nonzero"/></clipPath></defs><g clip-path="url(#56325b9b96)"><g clip-path="url(#ab057a2afb)"><path fill="#c0c0c0" d="M 209.394531 149.449219 L 209.394531 65.828125 L 239.417969 65.828125 L 239.417969 149.449219 Z M 209.394531 149.449219 " fill-opacity="1" fill-rule="nonzero"/></g></g><g clip-path="url(#bc4a215d1a)"><g clip-path="url(#0fbbb6fdfd)"><path fill="#ffffff" d="M 286.023438 65.109375 L 286.023438 212.363281 L 240.164062 212.363281 L 240.164062 65.109375 Z M 286.023438 65.109375 " fill-opacity="1" fill-rule="nonzero"/></g></g><g clip-path="url(#bdabe0dfa6)"><g clip-path="url(#9677c3923f)"><path fill="#c0c0c0" d="M 151.917969 167.921875 L 151.917969 102.160156 L 185.058594 102.160156 L 185.058594 167.921875 Z M 151.917969 167.921875 " fill-opacity="1" fill-rule="nonzero"/></g></g><g clip-path="url(#f1616f85a4)"><g clip-path="url(#d27bffc9f3)"><path fill="#ffffff" d="M 217.90625 101.425781 L 217.90625 197.53125 L 185.703125 197.53125 L 185.703125 101.425781 Z M 217.90625 101.425781 " fill-opacity="1" fill-rule="nonzero"/></g></g><g fill="#ffffff" fill-opacity="1"><g transform="translate(119.850274, 244.143325)"><g><path d="M 20.28125 -12.359375 C 21.632812 -11.929688 22.695312 -11.210938 23.46875 -10.203125 C 24.238281 -9.203125 24.625 -7.960938 24.625 -6.484375 C 24.625 -4.398438 23.8125 -2.796875 22.1875 -1.671875 C 20.570312 -0.554688 18.210938 0 15.109375 0 L 2.8125 0 L 2.8125 -23.78125 L 14.4375 -23.78125 C 17.332031 -23.78125 19.554688 -23.222656 21.109375 -22.109375 C 22.660156 -21.003906 23.4375 -19.5 23.4375 -17.59375 C 23.4375 -16.4375 23.160156 -15.40625 22.609375 -14.5 C 22.054688 -13.59375 21.28125 -12.878906 20.28125 -12.359375 Z M 8.28125 -19.640625 L 8.28125 -14.03125 L 13.75 -14.03125 C 15.113281 -14.03125 16.144531 -14.265625 16.84375 -14.734375 C 17.550781 -15.210938 17.90625 -15.914062 17.90625 -16.84375 C 17.90625 -17.769531 17.550781 -18.46875 16.84375 -18.9375 C 16.144531 -19.40625 15.113281 -19.640625 13.75 -19.640625 Z M 14.703125 -4.140625 C 16.148438 -4.140625 17.242188 -4.378906 17.984375 -4.859375 C 18.722656 -5.335938 19.09375 -6.070312 19.09375 -7.0625 C 19.09375 -9.03125 17.628906 -10.015625 14.703125 -10.015625 L 8.28125 -10.015625 L 8.28125 -4.140625 Z M 14.703125 -4.140625 "/></g></g></g><g fill="#ffffff" fill-opacity="1"><g transform="translate(145.83937, 244.143325)"><g><path d="M 13.390625 0.40625 C 9.984375 0.40625 7.332031 -0.53125 5.4375 -2.40625 C 3.550781 -4.289062 2.609375 -6.976562 2.609375 -10.46875 L 2.609375 -23.78125 L 8.125 -23.78125 L 8.125 -10.671875 C 8.125 -6.410156 9.890625 -4.28125 13.421875 -4.28125 C 15.140625 -4.28125 16.453125 -4.796875 17.359375 -5.828125 C 18.265625 -6.859375 18.71875 -8.472656 18.71875 -10.671875 L 18.71875 -23.78125 L 24.15625 -23.78125 L 24.15625 -10.46875 C 24.15625 -6.976562 23.207031 -4.289062 21.3125 -2.40625 C 19.425781 -0.53125 16.785156 0.40625 13.390625 0.40625 Z M 13.390625 0.40625 "/></g></g></g><g fill="#ffffff" fill-opacity="1"><g transform="translate(172.609846, 244.143325)"><g><path d="M 2.8125 -23.78125 L 8.328125 -23.78125 L 8.328125 0 L 2.8125 0 Z M 2.8125 -23.78125 "/></g></g></g><g fill="#ffffff" fill-opacity="1"><g transform="translate(183.752889, 244.143325)"><g><path d="M 2.8125 -23.78125 L 8.328125 -23.78125 L 8.328125 -4.484375 L 20.25 -4.484375 L 20.25 0 L 2.8125 0 Z M 2.8125 -23.78125 "/></g></g></g><g fill="#ffffff" fill-opacity="1"><g transform="translate(204.272384, 244.143325)"><g><path d="M 2.8125 -23.78125 L 13.625 -23.78125 C 16.207031 -23.78125 18.488281 -23.285156 20.46875 -22.296875 C 22.445312 -21.316406 23.984375 -19.929688 25.078125 -18.140625 C 26.179688 -16.347656 26.734375 -14.265625 26.734375 -11.890625 C 26.734375 -9.515625 26.179688 -7.429688 25.078125 -5.640625 C 23.984375 -3.847656 22.445312 -2.457031 20.46875 -1.46875 C 18.488281 -0.488281 16.207031 0 13.625 0 L 2.8125 0 Z M 13.34375 -4.515625 C 15.726562 -4.515625 17.625 -5.175781 19.03125 -6.5 C 20.445312 -7.820312 21.15625 -9.617188 21.15625 -11.890625 C 21.15625 -14.148438 20.445312 -15.941406 19.03125 -17.265625 C 17.625 -18.597656 15.726562 -19.265625 13.34375 -19.265625 L 8.328125 -19.265625 L 8.328125 -4.515625 Z M 13.34375 -4.515625 "/></g></g></g><g fill="#ffffff" fill-opacity="1"><g transform="translate(232.333822, 244.143325)"><g><path d="M 22.078125 -4.484375 L 22.078125 0 L 1.296875 0 L 1.296875 -3.5625 L 14.328125 -19.296875 L 1.5625 -19.296875 L 1.5625 -23.78125 L 21.5625 -23.78125 L 21.5625 -20.21875 L 8.5625 -4.484375 Z M 22.078125 -4.484375 "/></g></g></g><g clip-path="url(#c9bbfc4b89)"><g clip-path="url(#e30037bb92)"><path fill="#c0c0c0" d="M 100.953125 185.113281 L 100.953125 68.089844 L 134.09375 68.089844 L 134.09375 185.113281 Z M 100.953125 185.113281 " fill-opacity="1" fill-rule="nonzero"/></g></g><g clip-path="url(#08334e384d)"><g clip-path="url(#fa8210803b)"><path fill="#ffffff" d="M 168.988281 68.917969 L 168.988281 212.351562 L 134.832031 212.351562 L 134.832031 68.917969 Z M 168.988281 68.917969 " fill-opacity="1" fill-rule="nonzero"/></g></g></svg>