<svg xmlns="http://www.w3.org/2000/svg" xmlns:xlink="http://www.w3.org/1999/xlink" width="500" zoomAndPan="magnify" viewBox="0 0 375 374.999991" height="500" preserveAspectRatio="xMidYMid meet" version="1.0"><defs><g/><clipPath id="1ef86e64f1"><path d="M 217.285156 11.777344 L 273.503906 11.777344 L 273.503906 168.355469 L 217.285156 168.355469 Z M 217.285156 11.777344 " clip-rule="nonzero"/></clipPath><clipPath id="8be00080cb"><path d="M 217.285156 35.257812 L 217.285156 168.355469 L 273.503906 144.929688 L 273.503906 11.832031 Z M 217.285156 35.257812 " clip-rule="nonzero"/></clipPath><clipPath id="7a68968916"><path d="M 274.902344 11.835938 L 360.773438 11.835938 L 360.773438 287.566406 L 274.902344 287.566406 Z M 274.902344 11.835938 " clip-rule="nonzero"/></clipPath><clipPath id="0883894ea1"><path d="M 360.773438 39.851562 L 360.773438 287.433594 L 274.902344 259.417969 L 274.902344 11.835938 Z M 360.773438 39.851562 " clip-rule="nonzero"/></clipPath><clipPath id="1754dbc163"><path d="M 109.65625 79.679688 L 171.710938 79.679688 L 171.710938 203.058594 L 109.65625 203.058594 Z M 109.65625 79.679688 " clip-rule="nonzero"/></clipPath><clipPath id="6e5bda4535"><path d="M 109.65625 103.253906 L 109.65625 203.058594 L 171.710938 179.636719 L 171.710938 79.828125 Z M 109.65625 103.253906 " clip-rule="nonzero"/></clipPath><clipPath id="ffed20d32b"><path d="M 172.921875 79.835938 L 233.222656 79.835938 L 233.222656 259.792969 L 172.921875 259.792969 Z M 172.921875 79.835938 " clip-rule="nonzero"/></clipPath><clipPath id="af6a49c924"><path d="M 233.222656 99.9375 L 233.222656 259.691406 L 172.921875 239.59375 L 172.921875 79.835938 Z M 233.222656 99.9375 " clip-rule="nonzero"/></clipPath><clipPath id="4026216c1f"><path d="M 14.222656 18.953125 L 76.273438 18.953125 L 76.273438 238.082031 L 14.222656 238.082031 Z M 14.222656 18.953125 " clip-rule="nonzero"/></clipPath><clipPath id="2f3aca17e3"><path d="M 14.222656 42.398438 L 14.222656 238.082031 L 76.273438 214.660156 L 76.273438 18.976562 Z M 14.222656 42.398438 " clip-rule="nonzero"/></clipPath><clipPath id="c8fe877f2e"><path d="M 77.671875 18.976562 L 141.628906 18.976562 L 141.628906 287.546875 L 77.671875 287.546875 Z M 77.671875 18.976562 " clip-rule="nonzero"/></clipPath><clipPath id="afc87e3304"><path d="M 141.628906 46.988281 L 141.628906 287.429688 L 77.671875 259.414062 L 77.671875 18.976562 Z M 141.628906 46.988281 " clip-rule="nonzero"/></clipPath></defs><g clip-path="url(#1ef86e64f1)"><g clip-path="url(#8be00080cb)"><path fill="#5b4f47" d="M 217.285156 168.355469 L 217.285156 11.777344 L 273.503906 11.777344 L 273.503906 168.355469 Z M 217.285156 168.355469 " fill-opacity="1" fill-rule="nonzero"/></g></g><g clip-path="url(#7a68968916)"><g clip-path="url(#0883894ea1)"><path fill="#bd9479" d="M 360.773438 11.835938 L 360.773438 287.566406 L 274.902344 287.566406 L 274.902344 11.835938 Z M 360.773438 11.835938 " fill-opacity="1" fill-rule="nonzero"/></g></g><g clip-path="url(#1754dbc163)"><g clip-path="url(#6e5bda4535)"><path fill="#5b4f47" d="M 109.65625 203.058594 L 109.65625 79.921875 L 171.710938 79.921875 L 171.710938 203.058594 Z M 109.65625 203.058594 " fill-opacity="1" fill-rule="nonzero"/></g></g><g clip-path="url(#ffed20d32b)"><g clip-path="url(#af6a49c924)"><path fill="#bd9479" d="M 233.222656 79.835938 L 233.222656 259.792969 L 172.921875 259.792969 L 172.921875 79.835938 Z M 233.222656 79.835938 " fill-opacity="1" fill-rule="nonzero"/></g></g><g fill="#5b4f47" fill-opacity="1"><g transform="translate(83.824498, 348.479524)"><g><path d="M 30.34375 -23.28125 C 30.21875 -23.238281 30.15625 -23.164062 30.15625 -23.0625 C 30.15625 -22.957031 30.21875 -22.859375 30.34375 -22.765625 C 34.332031 -20.773438 36.328125 -17.34375 36.328125 -12.46875 C 36.328125 -8.351562 34.925781 -5.242188 32.125 -3.140625 C 29.320312 -1.046875 25.65625 0 21.125 0 L 4.96875 0 C 4.238281 0 3.875 -0.359375 3.875 -1.078125 L 3.875 -43.4375 C 3.875 -44.164062 4.238281 -44.53125 4.96875 -44.53125 L 20.609375 -44.53125 C 30.660156 -44.53125 35.6875 -40.457031 35.6875 -32.3125 C 35.6875 -28.03125 33.90625 -25.019531 30.34375 -23.28125 Z M 13.234375 -36.828125 C 12.972656 -36.828125 12.84375 -36.703125 12.84375 -36.453125 L 12.84375 -26.65625 C 12.84375 -26.394531 12.972656 -26.265625 13.234375 -26.265625 L 20.609375 -26.265625 C 22.597656 -26.265625 24.144531 -26.726562 25.25 -27.65625 C 26.351562 -28.59375 26.90625 -29.867188 26.90625 -31.484375 C 26.90625 -33.140625 26.351562 -34.441406 25.25 -35.390625 C 24.144531 -36.347656 22.597656 -36.828125 20.609375 -36.828125 Z M 21.125 -7.765625 C 23.070312 -7.765625 24.597656 -8.257812 25.703125 -9.25 C 26.804688 -10.25 27.359375 -11.617188 27.359375 -13.359375 C 27.359375 -15.097656 26.804688 -16.460938 25.703125 -17.453125 C 24.597656 -18.453125 23.050781 -18.953125 21.0625 -18.953125 L 13.234375 -18.953125 C 12.972656 -18.953125 12.84375 -18.828125 12.84375 -18.578125 L 12.84375 -8.140625 C 12.84375 -7.890625 12.972656 -7.765625 13.234375 -7.765625 Z M 21.125 -7.765625 "/></g></g></g><g fill="#5b4f47" fill-opacity="1"><g transform="translate(123.264324, 348.479524)"><g><path d="M 20.03125 0.515625 C 16.769531 0.515625 13.898438 -0.117188 11.421875 -1.390625 C 8.941406 -2.671875 7.007812 -4.460938 5.625 -6.765625 C 4.25 -9.078125 3.5625 -11.738281 3.5625 -14.75 L 3.5625 -43.4375 C 3.5625 -44.164062 3.921875 -44.53125 4.640625 -44.53125 L 11.453125 -44.53125 C 12.171875 -44.53125 12.53125 -44.164062 12.53125 -43.4375 L 12.53125 -14.6875 C 12.53125 -12.445312 13.21875 -10.632812 14.59375 -9.25 C 15.976562 -7.875 17.789062 -7.1875 20.03125 -7.1875 C 22.28125 -7.1875 24.09375 -7.875 25.46875 -9.25 C 26.851562 -10.632812 27.546875 -12.445312 27.546875 -14.6875 L 27.546875 -43.4375 C 27.546875 -44.164062 27.90625 -44.53125 28.625 -44.53125 L 35.4375 -44.53125 C 36.15625 -44.53125 36.515625 -44.164062 36.515625 -43.4375 L 36.515625 -14.75 C 36.515625 -11.738281 35.820312 -9.078125 34.4375 -6.765625 C 33.0625 -4.460938 31.132812 -2.671875 28.65625 -1.390625 C 26.175781 -0.117188 23.300781 0.515625 20.03125 0.515625 Z M 20.03125 0.515625 "/></g></g></g><g fill="#5b4f47" fill-opacity="1"><g transform="translate(163.27668, 348.479524)"><g><path d="M 4.96875 0 C 4.238281 0 3.875 -0.359375 3.875 -1.078125 L 3.875 -43.4375 C 3.875 -44.164062 4.238281 -44.53125 4.96875 -44.53125 L 11.765625 -44.53125 C 12.484375 -44.53125 12.84375 -44.164062 12.84375 -43.4375 L 12.84375 -1.078125 C 12.84375 -0.359375 12.484375 0 11.765625 0 Z M 4.96875 0 "/></g></g></g><g fill="#5b4f47" fill-opacity="1"><g transform="translate(180.006803, 348.479524)"><g><path d="M 4.96875 0 C 4.238281 0 3.875 -0.359375 3.875 -1.078125 L 3.875 -43.4375 C 3.875 -44.164062 4.238281 -44.53125 4.96875 -44.53125 L 11.765625 -44.53125 C 12.484375 -44.53125 12.84375 -44.164062 12.84375 -43.4375 L 12.84375 -8.078125 C 12.84375 -7.828125 12.972656 -7.703125 13.234375 -7.703125 L 33.65625 -7.703125 C 34.375 -7.703125 34.734375 -7.335938 34.734375 -6.609375 L 34.734375 -1.078125 C 34.734375 -0.359375 34.375 0 33.65625 0 Z M 4.96875 0 "/></g></g></g><g fill="#5b4f47" fill-opacity="1"><g transform="translate(216.393239, 348.479524)"><g><path d="M 4.96875 0 C 4.238281 0 3.875 -0.359375 3.875 -1.078125 L 3.875 -43.4375 C 3.875 -44.164062 4.238281 -44.53125 4.96875 -44.53125 L 20.546875 -44.53125 C 23.722656 -44.53125 26.507812 -43.96875 28.90625 -42.84375 C 31.300781 -41.71875 33.15625 -40.132812 34.46875 -38.09375 C 35.789062 -36.0625 36.453125 -33.710938 36.453125 -31.046875 L 36.453125 -13.484375 C 36.453125 -10.816406 35.789062 -8.460938 34.46875 -6.421875 C 33.15625 -4.390625 31.300781 -2.8125 28.90625 -1.6875 C 26.507812 -0.5625 23.722656 0 20.546875 0 Z M 12.84375 -8.078125 C 12.84375 -7.828125 12.972656 -7.703125 13.234375 -7.703125 L 20.859375 -7.703125 C 22.816406 -7.703125 24.398438 -8.359375 25.609375 -9.671875 C 26.816406 -10.984375 27.441406 -12.742188 27.484375 -14.953125 L 27.484375 -29.578125 C 27.484375 -31.785156 26.878906 -33.546875 25.671875 -34.859375 C 24.460938 -36.171875 22.835938 -36.828125 20.796875 -36.828125 L 13.234375 -36.828125 C 12.972656 -36.828125 12.84375 -36.703125 12.84375 -36.453125 Z M 12.84375 -8.078125 "/></g></g></g><g fill="#5b4f47" fill-opacity="1"><g transform="translate(255.705842, 348.479524)"><g><path d="M 3.109375 0 C 2.390625 0 2.03125 -0.359375 2.03125 -1.078125 L 2.03125 -7.375 C 2.03125 -7.925781 2.179688 -8.375 2.484375 -8.71875 L 22.828125 -36.390625 C 22.921875 -36.515625 22.941406 -36.617188 22.890625 -36.703125 C 22.847656 -36.785156 22.742188 -36.828125 22.578125 -36.828125 L 3.109375 -36.828125 C 2.390625 -36.828125 2.03125 -37.1875 2.03125 -37.90625 L 2.03125 -43.4375 C 2.03125 -44.164062 2.390625 -44.53125 3.109375 -44.53125 L 31.9375 -44.53125 C 32.65625 -44.53125 33.015625 -44.164062 33.015625 -43.4375 L 33.015625 -37.140625 C 33.015625 -36.597656 32.863281 -36.15625 32.5625 -35.8125 L 12.21875 -8.140625 C 12.125 -8.015625 12.097656 -7.910156 12.140625 -7.828125 C 12.191406 -7.742188 12.300781 -7.703125 12.46875 -7.703125 L 31.9375 -7.703125 C 32.65625 -7.703125 33.015625 -7.335938 33.015625 -6.609375 L 33.015625 -1.078125 C 33.015625 -0.359375 32.65625 0 31.9375 0 Z M 3.109375 0 "/></g></g></g><g clip-path="url(#4026216c1f)"><g clip-path="url(#2f3aca17e3)"><path fill="#5b4f47" d="M 14.222656 238.082031 L 14.222656 18.953125 L 76.273438 18.953125 L 76.273438 238.082031 Z M 14.222656 238.082031 " fill-opacity="1" fill-rule="nonzero"/></g></g><g clip-path="url(#c8fe877f2e)"><g clip-path="url(#afc87e3304)"><path fill="#bd9479" d="M 141.628906 18.976562 L 141.628906 287.546875 L 77.671875 287.546875 L 77.671875 18.976562 Z M 141.628906 18.976562 " fill-opacity="1" fill-rule="nonzero"/></g></g></svg>